<?xml version="1.0" encoding="UTF-8"?>
<svg id="Calque_2" data-name="Calque 2" xmlns="http://www.w3.org/2000/svg" viewBox="0 0 20 28">
  <defs>
    <style>
      .cls-1 {
        fill: #053725;
        stroke-width: 0px;
      }
    </style>
  </defs>
  <g id="shower">
    <g>
      <path class="cls-1" d="M11,8.05V2h4c.55,0,1-.45,1-1s-.45-1-1-1H5c-.55,0-1,.45-1,1s.45,1,1,1h4v6.05C3.95,8.55,0,12.82,0,18c0,.55.45,1,1,1h18c.55,0,1-.45,1-1,0-5.18-3.95-9.45-9-9.95ZM2.06,17c.49-3.94,3.87-7,7.94-7s7.44,3.06,7.94,7H2.06Z"/>
      <path class="cls-1" d="M2,20c-.55,0-1,.45-1,1v3c0,.55.45,1,1,1s1-.45,1-1v-3c0-.55-.45-1-1-1Z"/>
      <path class="cls-1" d="M6,20c-.55,0-1,.45-1,1v2c0,.55.45,1,1,1s1-.45,1-1v-2c0-.55-.45-1-1-1Z"/>
      <path class="cls-1" d="M6,25c-.55,0-1,.45-1,1v1c0,.55.45,1,1,1s1-.45,1-1v-1c0-.55-.45-1-1-1Z"/>
      <path class="cls-1" d="M14,25c-.55,0-1,.45-1,1v1c0,.55.45,1,1,1s1-.45,1-1v-1c0-.55-.45-1-1-1Z"/>
      <path class="cls-1" d="M10,20c-.55,0-1,.45-1,1v4c0,.55.45,1,1,1s1-.45,1-1v-4c0-.55-.45-1-1-1Z"/>
      <path class="cls-1" d="M14,20c-.55,0-1,.45-1,1v2c0,.55.45,1,1,1s1-.45,1-1v-2c0-.55-.45-1-1-1Z"/>
      <path class="cls-1" d="M18,20c-.55,0-1,.45-1,1v3c0,.55.45,1,1,1s1-.45,1-1v-3c0-.55-.45-1-1-1Z"/>
    </g>
  </g>
</svg>