<?xml version="1.0" encoding="UTF-8"?>
<svg id="Calque_2" data-name="Calque 2" xmlns="http://www.w3.org/2000/svg" viewBox="0 0 28 28">
  <defs>
    <style>
      .cls-1 {
        fill: #053725;
        stroke-width: 0px;
      }
    </style>
  </defs>
  <g id="single_bed" data-name="single bed">
    <g>
      <path class="cls-1" d="M26,13h-1v-3c0-.55-.45-1-1-1H4c-.55,0-1,.45-1,1v3h-1c-1.1,0-2,.9-2,2v6.5c0,1.38,1.12,2.5,2.5,2.5h1.5v3c0,.55.45,1,1,1h2c.43,0,.81-.28.95-.68l1-3c.04-.11.04-.21.04-.32h10.23l.81,3.24c.11.44.51.76.97.76h2c.55,0,1-.45,1-1v-3h1.5c1.38,0,2.5-1.12,2.5-2.5v-6.5c0-1.1-.9-2-2-2ZM5,11h18v2H5v-2ZM6.28,26h-.28v-2h.95l-.67,2ZM22,26h-.22l-.5-2h.72v2ZM26,21.5c0,.28-.22.5-.5.5H2.5c-.28,0-.5-.22-.5-.5v-6.5h24v6.5Z"/>
      <path class="cls-1" d="M5,8c.55,0,1-.45,1-1V2.51c0-.28.23-.51.51-.51h14.99c.28,0,.51.23.51.51v4.49c0,.55.45,1,1,1s1-.45,1-1V2.51c0-1.38-1.12-2.51-2.51-2.51H6.51c-1.38,0-2.51,1.12-2.51,2.51v4.49c0,.55.45,1,1,1Z"/>
    </g>
  </g>
</svg>