<?xml version="1.0" encoding="iso-8859-1"?>
<!-- Uploaded to: SVG Repo, www.svgrepo.com, Generator: SVG Repo Mixer Tools -->
<svg fill="#000000" height="800px" width="800px" version="1.1" id="Capa_1" xmlns="http://www.w3.org/2000/svg" xmlns:xlink="http://www.w3.org/1999/xlink" 
	 viewBox="0 0 374 374" xml:space="preserve">
<path id="XMLID_449_" d="M352,64.198h-30c-12.131,0-22,9.869-22,22v21.04L206.797,18.71c-11.101-10.545-28.493-10.544-39.594,0
	L74,107.238v-21.04c0-12.131-9.869-22-22-22H22c-12.131,0-22,9.869-22,22v277h55.5H74h226h18.5H374v-277
	C374,74.067,364.131,64.198,352,64.198z M54,343.198H20v-257c0-1.103,0.897-2,2-2h30c1.103,0,2,0.897,2,2V343.198z M180.977,33.211
	c3.378-3.208,8.669-3.208,12.047,0l98.951,93.987h-23.599c-8.202,0-14.875,6.673-14.875,14.875v12.125h-34v-12.125
	c0-8.202-6.673-14.875-14.875-14.875h-35.25c-8.202,0-14.875,6.673-14.875,14.875v12.125h-34v-12.125
	c0-8.202-6.673-14.875-14.875-14.875H82.026L180.977,33.211z M227,343.198h-80v-58.125c0-17.3,14.075-31.375,31.375-31.375h17.25
	c17.3,0,31.375,14.075,31.375,31.375V343.198z M298.5,343.198H247v-58.125c0-28.328-23.047-51.375-51.375-51.375h-17.25
	c-28.328,0-51.375,23.047-51.375,51.375v58.125H75.5v-196h25v12.125c0,8.202,6.673,14.875,14.875,14.875h44.25
	c8.202,0,14.875-6.673,14.875-14.875v-12.125h25v12.125c0,8.202,6.673,14.875,14.875,14.875h44.25
	c8.202,0,14.875-6.673,14.875-14.875v-12.125h25V343.198z M354,343.198h-34v-257c0-1.103,0.897-2,2-2h30c1.103,0,2,0.897,2,2
	V343.198z"/>
</svg>